<svg width="80.000000" height="56.140137" viewBox="0 0 80 56.1401" fill="none" xmlns="http://www.w3.org/2000/svg" xmlns:xlink="http://www.w3.org/1999/xlink">
	<desc>
			Created with Pixso.
	</desc>
	<defs>
		<clipPath id="clip259_312">
			<rect id="Frame" rx="0.000000" width="79.298248" height="55.438595" transform="translate(0.350877 0.350877)" fill="white" fill-opacity="0"/>
		</clipPath>
	</defs>
	<g opacity="0.500000">
		<rect id="Frame" rx="0.000000" width="79.298248" height="55.438595" transform="translate(0.350877 0.350877)" fill="#FFFFFF" fill-opacity="0"/>
		<g clip-path="url(#clip259_312)">
			<path id="Vector" d="M47.49 25.37C47.2 25.37 46.97 25.14 46.97 24.85C46.97 24.56 47.2 24.32 47.49 24.32C47.78 24.32 48.01 24.56 48.01 24.85C48.01 25.14 47.78 25.37 47.49 25.37Z" fill="#1A1A1A" fill-opacity="1.000000" fill-rule="nonzero"/>
			<path id="Vector" d="M49.64 47.42C49.41 47.42 49.23 47.25 49.23 47.02L49.23 45.39C49.23 45.16 49.41 44.99 49.64 44.99C49.87 44.99 50.04 45.16 50.04 45.39L50.04 47.02C50.04 47.25 49.87 47.42 49.64 47.42ZM29.61 47.31C29.38 47.31 29.21 47.13 29.21 46.9L29.21 45.34C29.21 45.1 29.38 44.93 29.61 44.93C29.85 44.93 30.02 45.1 30.02 45.34L30.02 46.9C29.96 47.13 29.85 47.31 29.61 47.31ZM49.64 41.21C49.41 41.21 49.23 41.04 49.23 40.81L49.23 39.24C49.23 39.01 49.41 38.83 49.64 38.83C49.87 38.83 50.04 39.01 50.04 39.24L50.04 40.81C50.04 41.04 49.87 41.21 49.64 41.21ZM29.61 41.16C29.38 41.16 29.21 40.98 29.21 40.75L29.21 39.12C29.21 38.89 29.38 38.72 29.61 38.72C29.85 38.72 30.02 38.89 30.02 39.12L30.02 40.75C29.96 40.98 29.85 41.16 29.61 41.16ZM49.64 35.12C49.41 35.12 49.23 34.95 49.23 34.71L49.23 33.09C49.23 32.86 49.41 32.68 49.64 32.68C49.87 32.68 50.04 32.86 50.04 33.09L50.04 34.71C50.04 34.95 49.87 35.12 49.64 35.12ZM29.61 35C29.38 35 29.21 34.83 29.21 34.6L29.21 33.03C29.21 32.8 29.38 32.62 29.61 32.62C29.85 32.62 30.02 32.8 30.02 33.03L30.02 34.6C29.96 34.83 29.85 35 29.61 35ZM25.84 26.3C25.61 26.3 25.43 26.12 25.43 25.89L25.43 23.68C25.43 23.45 25.61 23.28 25.84 23.28C26.07 23.28 26.25 23.45 26.25 23.68L26.25 25.89C26.25 26.12 26.07 26.3 25.84 26.3ZM22.94 26.3C22.71 26.3 22.53 26.12 22.53 25.89L22.53 23.68C22.53 23.45 22.71 23.28 22.94 23.28C23.17 23.28 23.35 23.45 23.35 23.68L23.35 25.89C23.35 26.12 23.17 26.3 22.94 26.3ZM19.86 26.3C19.63 26.3 19.46 26.12 19.46 25.89L19.46 23.68C19.46 23.45 19.63 23.28 19.86 23.28C20.09 23.28 20.27 23.45 20.27 23.68L20.27 25.89C20.27 26.12 20.09 26.3 19.86 26.3Z" fill="#1A1A1A" fill-opacity="1.000000" fill-rule="nonzero"/>
			<path id="Vector" d="M16.84 51.2C16.61 51.2 16.44 51.02 16.44 50.79C16.44 50.56 16.61 50.39 16.84 50.39L18.99 50.39L18.99 29.2L16.84 29.2C16.61 29.2 16.44 29.03 16.44 28.79L16.44 20.84C16.44 20.61 16.61 20.43 16.84 20.43L18.24 20.43L18.24 16.72C18.24 16.49 18.41 16.31 18.64 16.31L19.8 16.31L20.04 13.7L20.04 13.64C19.75 13.47 18.64 11.9 20.21 10.22C21.14 9.29 21.89 8.3 22.47 7.32L22.47 5.4C22.47 5.17 22.65 5 22.88 5C23.11 5 23.29 5.17 23.29 5.4L23.29 7.32C23.87 8.3 24.62 9.29 25.55 10.28C27.12 11.96 26.07 13.47 25.84 13.82L25.84 13.88L26.07 16.49L27.23 16.49C27.47 16.49 27.64 16.66 27.64 16.89L27.64 20.61L51.73 20.61L51.73 16.89C51.73 16.66 51.9 16.49 52.13 16.49L53.3 16.49L53.53 13.88L53.53 13.82C53.3 13.53 52.19 11.96 53.82 10.28C54.75 9.29 55.44 8.36 56.08 7.32L56.08 5.4C56.08 5.17 56.26 5 56.49 5C56.72 5 56.89 5.17 56.89 5.4L56.89 7.32C57.47 8.3 58.23 9.29 59.16 10.28C60.72 11.96 59.68 13.47 59.45 13.82L59.45 13.88L59.68 16.49L60.84 16.49C61.07 16.49 61.25 16.66 61.25 16.89L61.25 20.61L62.64 20.61C62.87 20.61 63.05 20.78 63.05 21.02L63.05 29.03C63.05 29.26 62.87 29.43 62.64 29.43L60.43 29.43L60.43 50.68L62.64 50.68C62.87 50.68 63.05 50.85 63.05 51.08C63.05 51.31 62.87 51.49 62.64 51.49L16.84 51.49L16.84 51.2ZM53.12 50.44L59.33 50.44L59.33 29.2L53.12 29.2L53.12 50.44ZM46.74 50.44L52.31 50.44L52.31 29.2L46.74 29.2L46.74 50.44ZM39.54 40.11C41.63 40.11 43.31 41.79 43.31 43.88L43.31 50.44L45.98 50.44L45.98 29.2L33.1 29.2L33.1 50.44L35.77 50.44L35.77 43.88C35.77 41.79 37.45 40.11 39.54 40.11ZM39.54 40.87C37.86 40.87 36.52 42.2 36.52 43.88L36.52 50.44L42.56 50.44L42.56 43.88C42.56 42.2 41.22 40.87 39.54 40.87ZM26.77 50.44L32.28 50.44L32.28 29.2L26.77 29.2L26.77 50.44ZM19.75 50.44L26.01 50.44L26.01 29.2L19.75 29.2L19.75 50.44ZM50.51 28.44L61.83 28.44L61.83 21.25L50.51 21.25L50.51 28.44ZM29.32 28.44L49.81 28.44L49.81 21.25L29.32 21.25L29.32 24.44L44.41 24.44C44.65 24.44 44.82 24.61 44.82 24.85C44.82 25.08 44.65 25.25 44.41 25.25L29.32 25.25L29.32 28.44ZM17.19 28.44L28.51 28.44L28.51 21.25L17.19 21.25L17.19 28.44ZM52.31 20.49L60.03 20.49L60.03 17.18L52.31 17.18L52.31 20.49ZM18.99 20.49L26.71 20.49L26.71 17.18L18.99 17.18L18.99 20.49ZM56.2 15.21C56.43 15.21 56.6 15.38 56.6 15.62L56.6 16.37L58.58 16.37L58.4 13.99L54.17 13.99L53.99 16.37L55.97 16.37L55.97 15.62C55.85 15.38 56.02 15.21 56.2 15.21ZM22.88 15.27C23.11 15.27 23.29 15.44 23.29 15.68L23.29 16.43L25.26 16.43L25.09 14.05L20.85 14.05L20.67 16.43L22.65 16.43L22.65 15.68C22.47 15.44 22.65 15.27 22.88 15.27ZM56.08 8.25C55.56 9.12 54.86 9.93 54.11 10.74C53.06 11.84 53.59 12.83 53.88 13.24L53.93 13.3L58.58 13.3L58.64 13.24C58.93 12.89 59.45 11.84 58.4 10.74C57.59 9.93 56.95 9.12 56.43 8.25L56.31 8.07L56.08 8.25ZM22.76 8.25C22.24 9.12 21.55 9.93 20.79 10.74C19.75 11.84 20.27 12.83 20.56 13.24L20.62 13.3L25.2 13.3L25.26 13.24C25.55 12.89 26.07 11.84 25.03 10.74C24.22 9.93 23.58 9.12 23.05 8.25L22.94 8.07L22.76 8.25Z" fill="#1A1A1A" fill-opacity="1.000000" fill-rule="nonzero"/>
			<path id="Vector" d="M59.16 26.3C58.93 26.3 58.75 26.12 58.75 25.89L58.75 23.68C58.75 23.45 58.93 23.28 59.16 23.28C59.39 23.28 59.56 23.45 59.56 23.68L59.56 25.89C59.56 26.12 59.39 26.3 59.16 26.3ZM56.25 26.3C56.02 26.3 55.85 26.12 55.85 25.89L55.85 23.68C55.85 23.45 56.02 23.28 56.25 23.28C56.49 23.28 56.66 23.45 56.66 23.68L56.66 25.89C56.66 26.12 56.49 26.3 56.25 26.3ZM53.24 26.3C53 26.3 52.83 26.12 52.83 25.89L52.83 23.68C52.83 23.45 53 23.28 53.24 23.28C53.47 23.28 53.64 23.45 53.64 23.68L53.64 25.89C53.58 26.12 53.41 26.3 53.24 26.3ZM45.52 16.6C45.28 16.6 45.11 16.43 45.11 16.2L45.11 15.56C45.11 15.33 45.28 15.15 45.52 15.15C45.75 15.15 45.92 15.33 45.92 15.56L45.92 16.2C45.87 16.43 45.69 16.6 45.52 16.6ZM46.79 14.63C46.56 14.63 46.39 14.46 46.39 14.22C46.39 13.99 46.56 13.82 46.79 13.82L47.43 13.82C47.66 13.82 47.84 13.99 47.84 14.22C47.84 14.46 47.66 14.63 47.43 14.63L46.79 14.63ZM43.49 14.63C43.25 14.63 43.08 14.46 43.08 14.22C43.08 13.99 43.25 13.82 43.49 13.82L44.12 13.82C44.36 13.82 44.53 13.99 44.53 14.22C44.53 14.46 44.36 14.63 44.12 14.63L43.49 14.63ZM45.52 13.3C45.28 13.3 45.11 13.12 45.11 12.89L45.11 12.25C45.11 12.02 45.28 11.84 45.52 11.84C45.75 11.84 45.92 12.02 45.92 12.25L45.92 12.89C45.87 13.12 45.69 13.3 45.52 13.3ZM33.56 11.61C33.33 11.61 33.15 11.44 33.15 11.21L33.15 10.63C33.15 10.39 33.33 10.22 33.56 10.22C33.79 10.22 33.97 10.39 33.97 10.63L33.97 11.26C33.97 11.44 33.79 11.61 33.56 11.61ZM34.89 9.64C34.66 9.64 34.49 9.46 34.49 9.23C34.49 9 34.66 8.83 34.89 8.83L35.59 8.83C35.82 8.83 36 9 36 9.23C35.94 9.46 35.77 9.64 35.59 9.64L34.89 9.64ZM31.59 9.64C31.35 9.64 31.18 9.46 31.18 9.23C31.18 9 31.35 8.83 31.59 8.83L32.23 8.83C32.46 8.83 32.63 9 32.63 9.23C32.63 9.46 32.46 9.64 32.23 9.64L31.59 9.64ZM33.56 8.3C33.33 8.3 33.15 8.13 33.15 7.9L33.15 7.32C33.15 7.08 33.33 6.91 33.56 6.91C33.79 6.91 33.97 7.08 33.97 7.32L33.97 7.96C33.97 8.13 33.79 8.3 33.56 8.3Z" fill="#1A1A1A" fill-opacity="1.000000" fill-rule="nonzero"/>
		</g>
	</g>
</svg>
