<svg width="33.000000" height="29.000000" viewBox="0 0 33 29" fill="none" xmlns="http://www.w3.org/2000/svg" xmlns:xlink="http://www.w3.org/1999/xlink">
	<desc>
			Created with Pixso.
	</desc>
	<defs>
		<clipPath id="clip243_79">
			<rect id="Frame" rx="0.000000" width="23.000000" height="23.000000" transform="translate(0.500000 5.500000)" fill="white" fill-opacity="0"/>
		</clipPath>
	</defs>
	<rect id="Frame" rx="0.000000" width="23.000000" height="23.000000" transform="translate(0.500000 5.500000)" fill="#FFFFFF" fill-opacity="0"/>
	<g clip-path="url(#clip243_79)">
		<path id="Vector" d="M2.66 14.83C2.48 13.75 2.39 13.21 2.68 12.85C2.97 12.5 3.51 12.5 4.58 12.5L19.41 12.5C20.48 12.5 21.02 12.5 21.31 12.85C21.6 13.21 21.51 13.75 21.33 14.83L20.12 22.01C19.72 24.39 19.52 25.58 18.71 26.29C17.89 27 16.72 27 14.37 27L9.62 27C7.27 27 6.1 27 5.28 26.29C4.47 25.58 4.27 24.39 3.87 22.01L2.66 14.83Z" stroke="#1A1A1A" stroke-opacity="1.000000" stroke-width="1.500000"/>
		<path id="Vector" d="M2.66 14.83C2.48 13.75 2.39 13.21 2.68 12.85C2.97 12.5 3.51 12.5 4.58 12.5L19.41 12.5C20.48 12.5 21.02 12.5 21.31 12.85C21.6 13.21 21.51 13.75 21.33 14.83L20.12 22.01C19.72 24.39 19.52 25.58 18.71 26.29C17.89 27 16.72 27 14.37 27L9.62 27C7.27 27 6.1 27 5.28 26.29C4.47 25.58 4.27 24.39 3.87 22.01L2.66 14.83Z" stroke="#000000" stroke-opacity="0.200000" stroke-width="1.500000"/>
		<path id="Vector" d="M17.5 12.5C17.5 9.46 15.03 7 12 7C8.96 7 6.5 9.46 6.5 12.5" stroke="#1A1A1A" stroke-opacity="1.000000" stroke-width="1.500000"/>
		<path id="Vector" d="M17.5 12.5C17.5 9.46 15.03 7 12 7C8.96 7 6.5 9.46 6.5 12.5" stroke="#000000" stroke-opacity="0.200000" stroke-width="1.500000"/>
	</g>
	<circle id="Ellipse 22" cx="24.000000" cy="9.000000" r="9.000000" fill="#1A1A1A" fill-opacity="1.000000"/>
	<circle id="Ellipse 22" cx="24.000000" cy="9.000000" r="9.000000" fill="#000000" fill-opacity="0.200000"/>
	<path id="0" d="M21.42 5.26Q20.72 6.43 20.72 8.51Q20.72 10.61 21.42 11.79Q21.61 12.12 21.89 12.36Q22.6 12.97 23.84 12.97Q25.06 12.97 25.77 12.36Q26.05 12.12 26.25 11.79Q26.96 10.61 26.96 8.51Q26.96 6.43 26.25 5.26Q26.06 4.94 25.79 4.71Q25.08 4.09 23.84 4.09Q22.59 4.09 21.88 4.71Q21.61 4.94 21.42 5.26ZM25.49 6.86Q25.61 7.53 25.61 8.51Q25.61 9.51 25.49 10.2Q25.37 10.88 24.98 11.3Q24.94 11.35 24.89 11.39Q24.51 11.72 23.84 11.72Q23.16 11.72 22.78 11.39Q22.73 11.35 22.69 11.3Q22.3 10.88 22.18 10.2Q22.06 9.51 22.06 8.51Q22.06 7.53 22.19 6.86Q22.31 6.19 22.7 5.77Q22.74 5.71 22.8 5.67Q23.17 5.34 23.84 5.34Q24.5 5.34 24.87 5.67Q24.93 5.71 24.98 5.77Q25.36 6.19 25.49 6.86Z" fill="#FFFFFF" fill-opacity="1.000000" fill-rule="evenodd"/>
</svg>
