<svg width="70.000000" height="70.000000" viewBox="0 0 70 70" fill="none" xmlns="http://www.w3.org/2000/svg" xmlns:xlink="http://www.w3.org/1999/xlink">
	<desc>
			Created with Pixso.
	</desc>
	<defs>
		<clipPath id="clip243_406">
			<rect id="Frame" width="70.000000" height="70.000000" fill="white" fill-opacity="0"/>
		</clipPath>
	</defs>
	<rect id="Frame" width="70.000000" height="70.000000" fill="#FFFFFF" fill-opacity="0"/>
	<g clip-path="url(#clip243_406)">
		<path id="Vector" d="M63.93 16.13C62.71 13.99 62.1 12.93 61.05 12.5C60.01 12.07 58.83 12.41 56.47 13.08L52.47 14.22C50.96 14.57 49.38 14.37 48.01 13.66L46.91 13.02C45.73 12.26 44.82 11.14 44.32 9.82L43.22 6.53C42.5 4.35 42.14 3.26 41.28 2.64C40.43 2.02 39.29 2.02 37.01 2.02L33.35 2.02C31.07 2.02 29.93 2.02 29.07 2.64C28.21 3.26 27.85 4.35 27.13 6.53L26.04 9.82C25.54 11.14 24.63 12.26 23.45 13.02L22.34 13.66C20.97 14.37 19.39 14.57 17.89 14.22L13.88 13.08C11.52 12.41 10.34 12.07 9.3 12.5C8.26 12.93 7.65 13.99 6.42 16.13L4.8 18.96C3.65 20.96 3.08 21.96 3.19 23.03C3.3 24.1 4.07 24.96 5.61 26.68L8.99 30.48C9.82 31.53 10.41 33.37 10.41 35.02C10.41 36.67 9.82 38.5 8.99 39.56L5.61 43.36C4.07 45.08 3.3 45.94 3.19 47C3.08 48.07 3.65 49.07 4.8 51.08L6.42 53.9C7.65 56.04 8.26 57.11 9.3 57.54C10.34 57.96 11.52 57.63 13.88 56.95L17.89 55.82C19.39 55.47 20.97 55.67 22.35 56.38L23.45 57.02C24.63 57.78 25.54 58.9 26.04 60.21L27.13 63.51C27.85 65.68 28.21 66.77 29.07 67.4C29.93 68.02 31.07 68.02 33.35 68.02L37.01 68.02C39.29 68.02 40.43 68.02 41.28 67.4C42.14 66.77 42.5 65.68 43.22 63.51L44.32 60.21C44.82 58.9 45.73 57.78 46.9 57.02L48.01 56.38C49.38 55.67 50.96 55.47 52.47 55.82L56.47 56.95C58.83 57.63 60.01 57.96 61.05 57.54C62.1 57.11 62.71 56.04 63.93 53.9L65.55 51.08C66.7 49.07 67.28 48.07 67.16 47C67.05 45.94 66.28 45.08 64.75 43.36L61.36 39.56C60.54 38.5 59.95 36.67 59.95 35.02C59.95 33.37 60.54 31.53 61.36 30.48L64.75 26.68C66.28 24.96 67.05 24.1 67.16 23.03C67.28 21.96 66.7 20.96 65.55 18.96L63.93 16.13Z" stroke="#B0DD1D" stroke-opacity="1.000000" stroke-width="2.000000"/>
		<path id="Vector" d="M24.18 48.02C26.37 44.04 30.48 41.36 35.18 41.36C39.88 41.36 43.98 44.04 46.18 48.02M35.18 33.19C31.71 33.19 28.89 30.24 28.89 26.61C28.89 22.97 31.71 20.02 35.18 20.02C38.65 20.02 41.46 22.97 41.46 26.61C41.46 30.24 38.65 33.19 35.18 33.19Z" stroke="#B0DD1D" stroke-opacity="1.000000" stroke-width="2.000000" stroke-linecap="round"/>
	</g>
</svg>
