<svg width="32.458496" height="59.791748" viewBox="0 0 32.4585 59.7917" fill="none" xmlns="http://www.w3.org/2000/svg" xmlns:xlink="http://www.w3.org/1999/xlink">
	<desc>
			Created with Pixso.
	</desc>
	<defs/>
	<path id="Vector" d="M6.83 23.91C6.83 14.48 14.48 6.83 23.91 6.83C25.8 6.83 27.33 5.3 27.33 3.41C27.33 1.52 25.8 0 23.91 0C10.7 0 0 10.7 0 23.91L0 50.39C0 55.58 4.2 59.79 9.39 59.79L23.06 59.79C28.25 59.79 32.45 55.58 32.45 50.39L32.45 36.72C32.45 31.54 28.25 27.33 23.06 27.33L9.39 27.33C8.5 27.33 7.64 27.45 6.83 27.68L6.83 23.91Z" fill="#B0DD1D" fill-opacity="1.000000" fill-rule="nonzero"/>
</svg>
