<svg width="80.000000" height="80.000000" viewBox="0 0 80 80" fill="none" xmlns="http://www.w3.org/2000/svg" xmlns:xlink="http://www.w3.org/1999/xlink">
	<desc>
			Created with Pixso.
	</desc>
	<defs>
		<clipPath id="clip243_144">
			<rect id="Frame" width="42.020203" height="42.020203" transform="translate(19.394043 19.394043)" fill="white" fill-opacity="0"/>
		</clipPath>
	</defs>
	<rect id="Rectangle 61" rx="40.000000" width="80.000000" height="80.000000" fill="#FFFFFF" fill-opacity="1.000000"/>
	<rect id="Frame" width="42.020203" height="42.020203" transform="translate(19.394043 19.394043)" fill="#FFFFFF" fill-opacity="0"/>
	<g clip-path="url(#clip243_144)">
		<path id="Vector" d="M49.15 54.41C46.74 54.41 44.78 52.45 44.78 50.03C44.78 47.61 46.74 45.65 49.15 45.65C51.57 45.65 53.53 47.61 53.53 50.03C53.53 52.45 51.57 54.41 49.15 54.41Z" stroke="#1A1A1A" stroke-opacity="1.000000" stroke-width="1.500000"/>
		<path id="Vector" d="M49.15 54.41C46.74 54.41 44.78 52.45 44.78 50.03C44.78 47.61 46.74 45.65 49.15 45.65C51.57 45.65 53.53 47.61 53.53 50.03C53.53 52.45 51.57 54.41 49.15 54.41Z" stroke="#000000" stroke-opacity="0.200000" stroke-width="1.500000"/>
		<path id="Vector" d="M31.64 54.41C29.23 54.41 27.27 52.45 27.27 50.03C27.27 47.61 29.23 45.65 31.64 45.65C34.06 45.65 36.02 47.61 36.02 50.03C36.02 52.45 34.06 54.41 31.64 54.41Z" stroke="#1A1A1A" stroke-opacity="1.000000" stroke-width="1.500000"/>
		<path id="Vector" d="M31.64 54.41C29.23 54.41 27.27 52.45 27.27 50.03C27.27 47.61 29.23 45.65 31.64 45.65C34.06 45.65 36.02 47.61 36.02 50.03C36.02 52.45 34.06 54.41 31.64 54.41Z" stroke="#000000" stroke-opacity="0.200000" stroke-width="1.500000"/>
		<path id="Vector" d="M44.78 50.03L36.02 50.03M53.53 50.03L54.87 50.03C55.25 50.03 55.44 50.03 55.61 50.01C56.8 49.86 57.74 48.92 57.89 47.73C57.91 47.57 57.91 47.37 57.91 46.99L57.91 42.15C57.91 35.86 52.81 30.77 46.53 30.77M22.89 26.39L40.4 26.39C42.87 26.39 44.11 26.39 44.88 27.16C45.65 27.93 45.65 29.17 45.65 31.64L45.65 46.53M22.89 41.71L22.89 45.65C22.89 47.29 22.89 48.11 23.24 48.72C23.47 49.11 23.8 49.45 24.2 49.68C24.81 50.03 25.63 50.03 27.27 50.03" stroke="#1A1A1A" stroke-opacity="1.000000" stroke-width="1.500000" stroke-linejoin="round" stroke-linecap="round"/>
		<path id="Vector" d="M44.78 50.03L36.02 50.03M53.53 50.03L54.87 50.03C55.25 50.03 55.44 50.03 55.61 50.01C56.8 49.86 57.74 48.92 57.89 47.73C57.91 47.57 57.91 47.37 57.91 46.99L57.91 42.15C57.91 35.86 52.81 30.77 46.53 30.77M22.89 26.39L40.4 26.39C42.87 26.39 44.11 26.39 44.88 27.16C45.65 27.93 45.65 29.17 45.65 31.64L45.65 46.53M22.89 41.71L22.89 45.65C22.89 47.29 22.89 48.11 23.24 48.72C23.47 49.11 23.8 49.45 24.2 49.68C24.81 50.03 25.63 50.03 27.27 50.03" stroke="#000000" stroke-opacity="0.200000" stroke-width="1.500000" stroke-linejoin="round" stroke-linecap="round"/>
		<path id="Vector" d="M22.89 31.64L33.4 31.64M22.89 36.9L29.89 36.9" stroke="#1A1A1A" stroke-opacity="1.000000" stroke-width="1.500000" stroke-linejoin="round" stroke-linecap="round"/>
		<path id="Vector" d="M22.89 31.64L33.4 31.64M22.89 36.9L29.89 36.9" stroke="#000000" stroke-opacity="0.200000" stroke-width="1.500000" stroke-linejoin="round" stroke-linecap="round"/>
	</g>
</svg>
