<svg width="38.000000" height="38.000000" viewBox="0 0 38 38" fill="none" xmlns="http://www.w3.org/2000/svg" xmlns:xlink="http://www.w3.org/1999/xlink">
	<desc>
			Created with Pixso.
	</desc>
	<defs>
		<clipPath id="clip243_321">
			<rect id="Facebook" width="18.000000" height="18.000000" transform="translate(10.000000 10.000000)" fill="white" fill-opacity="0"/>
		</clipPath>
	</defs>
	<circle id="Ellipse 6" cx="19.000000" cy="19.000000" r="19.000000" fill="#F2F4F6" fill-opacity="1.000000"/>
	<circle id="Ellipse 6" cx="19.000000" cy="19.000000" r="18.500000" stroke="#000000" stroke-opacity="0" stroke-width="1.000000"/>
	<rect id="Facebook" width="18.000000" height="18.000000" transform="translate(10.000000 10.000000)" fill="#FFFFFF" fill-opacity="0"/>
	<g clip-path="url(#clip243_321)">
		<path id="Vector" d="M22.85 11.61L22.85 13.99L21.43 13.99C21.39 13.98 21.33 13.98 21.27 13.98C20.93 13.98 20.62 14.1 20.39 14.31L20.39 14.31C20.22 14.55 20.12 14.85 20.12 15.17C20.12 15.21 20.12 15.25 20.12 15.29L20.12 15.28L20.12 16.99L22.76 16.99L22.41 19.66L20.12 19.66L20.12 26.49L17.36 26.49L17.36 19.65L15.06 19.65L15.06 16.99L17.36 16.99L17.36 15.02C17.36 14.96 17.36 14.88 17.36 14.81C17.36 13.89 17.72 13.05 18.3 12.42L18.3 12.42C18.91 11.85 19.73 11.5 20.63 11.5C20.69 11.5 20.75 11.5 20.8 11.5L20.79 11.5C20.87 11.5 20.95 11.5 21.04 11.5C21.68 11.5 22.31 11.54 22.92 11.62L22.85 11.61L22.85 11.61Z" fill="#1A1A1A" fill-opacity="1.000000" fill-rule="nonzero"/>
		<path id="Vector" d="M22.85 11.61L22.85 13.99L21.43 13.99C21.39 13.98 21.33 13.98 21.27 13.98C20.93 13.98 20.62 14.1 20.39 14.31L20.39 14.31C20.22 14.55 20.12 14.85 20.12 15.17C20.12 15.21 20.12 15.25 20.12 15.29L20.12 15.28L20.12 16.99L22.76 16.99L22.41 19.66L20.12 19.66L20.12 26.49L17.36 26.49L17.36 19.65L15.06 19.65L15.06 16.99L17.36 16.99L17.36 15.02C17.36 14.96 17.36 14.88 17.36 14.81C17.36 13.89 17.72 13.05 18.3 12.42L18.3 12.42C18.91 11.85 19.73 11.5 20.63 11.5C20.69 11.5 20.75 11.5 20.8 11.5L20.79 11.5C20.87 11.5 20.95 11.5 21.04 11.5C21.68 11.5 22.31 11.54 22.92 11.62L22.85 11.61L22.85 11.61Z" fill="#000000" fill-opacity="0.200000" fill-rule="nonzero"/>
	</g>
</svg>
