<svg width="68.000000" height="68.000000" viewBox="0 0 68 68" fill="none" xmlns="http://www.w3.org/2000/svg" xmlns:xlink="http://www.w3.org/1999/xlink">
	<desc>
			Created with Pixso.
	</desc>
	<defs/>
	<path id="Vector" d="M10.89 47.19L27.39 37.29M40.59 30.7L57.09 20.79M34 10.89L34 27.39M34 40.59L34 57.09M10.89 20.79L27.39 30.7M40.59 37.29L57.09 47.19" stroke="#1A1A1A" stroke-opacity="1.000000" stroke-width="2.000000" stroke-linejoin="round"/>
	<path id="Vector" d="M10.89 47.19L27.39 37.29M40.59 30.7L57.09 20.79M34 10.89L34 27.39M34 40.59L34 57.09M10.89 20.79L27.39 30.7M40.59 37.29L57.09 47.19" stroke="#000000" stroke-opacity="0.200000" stroke-width="2.000000" stroke-linejoin="round"/>
	<path id="Vector" d="M62.04 24.09L62.04 42.24M38.95 62.04L57.1 52.14M9.25 52.14L29.05 62.04M5.95 43.89L5.95 24.09M9.25 15.84L29.05 5.94M58.75 15.84L38.95 5.94" stroke="#1A1A1A" stroke-opacity="1.000000" stroke-width="2.000000" stroke-linejoin="round"/>
	<path id="Vector" d="M62.04 24.09L62.04 42.24M38.95 62.04L57.1 52.14M9.25 52.14L29.05 62.04M5.95 43.89L5.95 24.09M9.25 15.84L29.05 5.94M58.75 15.84L38.95 5.94" stroke="#000000" stroke-opacity="0.200000" stroke-width="2.000000" stroke-linejoin="round"/>
	<path id="Vector" d="M34 10.89C31.26 10.89 29.04 8.68 29.04 5.94C29.04 3.21 31.26 1 34 1C36.73 1 38.94 3.21 38.94 5.94C38.94 8.68 36.73 10.89 34 10.89Z" stroke="#1A1A1A" stroke-opacity="1.000000" stroke-width="2.000000" stroke-linejoin="round"/>
	<path id="Vector" d="M34 10.89C31.26 10.89 29.04 8.68 29.04 5.94C29.04 3.21 31.26 1 34 1C36.73 1 38.94 3.21 38.94 5.94C38.94 8.68 36.73 10.89 34 10.89Z" stroke="#000000" stroke-opacity="0.200000" stroke-width="2.000000" stroke-linejoin="round"/>
	<path id="Vector" d="M34 67C31.26 67 29.04 64.78 29.04 62.05C29.04 59.31 31.26 57.1 34 57.1C36.73 57.1 38.94 59.31 38.94 62.05C38.94 64.78 36.73 67 34 67Z" stroke="#1A1A1A" stroke-opacity="1.000000" stroke-width="2.000000" stroke-linejoin="round"/>
	<path id="Vector" d="M34 67C31.26 67 29.04 64.78 29.04 62.05C29.04 59.31 31.26 57.1 34 57.1C36.73 57.1 38.94 59.31 38.94 62.05C38.94 64.78 36.73 67 34 67Z" stroke="#000000" stroke-opacity="0.200000" stroke-width="2.000000" stroke-linejoin="round"/>
	<path id="Vector" d="M5.95 24.09C3.21 24.09 1 21.88 1 19.14C1 16.41 3.21 14.2 5.95 14.2C8.68 14.2 10.89 16.41 10.89 19.14C10.89 21.88 8.68 24.09 5.95 24.09Z" stroke="#1A1A1A" stroke-opacity="1.000000" stroke-width="2.000000" stroke-linejoin="round"/>
	<path id="Vector" d="M5.95 24.09C3.21 24.09 1 21.88 1 19.14C1 16.41 3.21 14.2 5.95 14.2C8.68 14.2 10.89 16.41 10.89 19.14C10.89 21.88 8.68 24.09 5.95 24.09Z" stroke="#000000" stroke-opacity="0.200000" stroke-width="2.000000" stroke-linejoin="round"/>
	<path id="Vector" d="M62.05 24.09C59.31 24.09 57.1 21.88 57.1 19.14C57.1 16.41 59.31 14.2 62.05 14.2C64.78 14.2 67 16.41 67 19.14C67 21.88 64.78 24.09 62.05 24.09Z" stroke="#1A1A1A" stroke-opacity="1.000000" stroke-width="2.000000" stroke-linejoin="round"/>
	<path id="Vector" d="M62.05 24.09C59.31 24.09 57.1 21.88 57.1 19.14C57.1 16.41 59.31 14.2 62.05 14.2C64.78 14.2 67 16.41 67 19.14C67 21.88 64.78 24.09 62.05 24.09Z" stroke="#000000" stroke-opacity="0.200000" stroke-width="2.000000" stroke-linejoin="round"/>
	<path id="Vector" d="M62.05 53.79C59.31 53.79 57.1 51.58 57.1 48.84C57.1 46.11 59.31 43.89 62.05 43.89C64.78 43.89 67 46.11 67 48.84C67 51.58 64.78 53.79 62.05 53.79Z" stroke="#1A1A1A" stroke-opacity="1.000000" stroke-width="2.000000" stroke-linejoin="round"/>
	<path id="Vector" d="M62.05 53.79C59.31 53.79 57.1 51.58 57.1 48.84C57.1 46.11 59.31 43.89 62.05 43.89C64.78 43.89 67 46.11 67 48.84C67 51.58 64.78 53.79 62.05 53.79Z" stroke="#000000" stroke-opacity="0.200000" stroke-width="2.000000" stroke-linejoin="round"/>
	<path id="Vector" d="M5.95 53.79C3.21 53.79 1 51.58 1 48.84C1 46.11 3.21 43.89 5.95 43.89C8.68 43.89 10.89 46.11 10.89 48.84C10.89 51.58 8.68 53.79 5.95 53.79Z" stroke="#1A1A1A" stroke-opacity="1.000000" stroke-width="2.000000" stroke-linejoin="round"/>
	<path id="Vector" d="M5.95 53.79C3.21 53.79 1 51.58 1 48.84C1 46.11 3.21 43.89 5.95 43.89C8.68 43.89 10.89 46.11 10.89 48.84C10.89 51.58 8.68 53.79 5.95 53.79Z" stroke="#000000" stroke-opacity="0.200000" stroke-width="2.000000" stroke-linejoin="round"/>
	<path id="Vector" d="M40.6 30.28L40.6 37.71L34 41.42L27.4 37.71L27.4 30.28L34 26.57L40.6 30.28Z" stroke="#1A1A1A" stroke-opacity="1.000000" stroke-width="2.000000" stroke-linejoin="round"/>
	<path id="Vector" d="M40.6 30.28L40.6 37.71L34 41.42L27.4 37.71L27.4 30.28L34 26.57L40.6 30.28Z" stroke="#000000" stroke-opacity="0.200000" stroke-width="2.000000" stroke-linejoin="round"/>
</svg>
