<svg width="47.000000" height="47.000000" viewBox="0 0 47 47" fill="none" xmlns="http://www.w3.org/2000/svg" xmlns:xlink="http://www.w3.org/1999/xlink">
	<desc>
			Created with Pixso.
	</desc>
	<defs>
		<clipPath id="clip259_138">
			<rect id="Frame" rx="0.000000" width="19.156250" height="19.156250" transform="matrix(-1 0 0 1 33.9219 13.9219)" fill="white" fill-opacity="0"/>
		</clipPath>
	</defs>
	<rect id="Frame 395" rx="23.078125" width="46.156250" height="46.156250" transform="matrix(-1 0 0 1 47.4219 0.421875)" fill="#FFFFFF" fill-opacity="1.000000"/>
	<rect id="Frame" rx="0.000000" width="19.156250" height="19.156250" transform="matrix(-1 0 0 1 33.9219 13.9219)" fill="#FFFFFF" fill-opacity="0"/>
	<g clip-path="url(#clip259_138)">
		<path id="Vector" d="M16.83 23.49L30.16 23.49" stroke="#002B55" stroke-opacity="1.000000" stroke-width="1.265625" stroke-linejoin="round" stroke-linecap="round"/>
		<path id="Vector" d="M21 27.66C21 27.66 16.83 24.59 16.83 23.5C16.83 22.4 21 19.33 21 19.33" stroke="#002B55" stroke-opacity="1.000000" stroke-width="1.265625" stroke-linejoin="round" stroke-linecap="round"/>
	</g>
	<rect id="Frame 395" rx="23.078125" width="46.156250" height="46.156250" transform="matrix(-1 0 0 1 47.4219 0.421875)" stroke="#1A1A1A" stroke-opacity="1.000000" stroke-width="0.843750"/>
	<rect id="Frame 395" rx="23.078125" width="46.156250" height="46.156250" transform="matrix(-1 0 0 1 47.4219 0.421875)" stroke="#000000" stroke-opacity="0.200000" stroke-width="0.843750"/>
</svg>
