<svg width="64.000000" height="64.000000" viewBox="0 0 64 64" fill="none" xmlns="http://www.w3.org/2000/svg" xmlns:xlink="http://www.w3.org/1999/xlink">
	<desc>
			Created with Pixso.
	</desc>
	<defs>
		<clipPath id="clip243_91">
			<rect id="Frame" rx="0.000000" width="31.000000" height="31.000000" transform="matrix(-1 0 0 1 48.5 16.5)" fill="white" fill-opacity="0"/>
		</clipPath>
	</defs>
	<rect id="Frame 393" rx="31.500000" width="63.000000" height="63.000000" transform="matrix(-1 0 0 1 64.5 0.5)" fill="#B0DD1D" fill-opacity="1.000000"/>
	<rect id="Frame" rx="0.000000" width="31.000000" height="31.000000" transform="matrix(-1 0 0 1 48.5 16.5)" fill="#FFFFFF" fill-opacity="0"/>
	<g clip-path="url(#clip243_91)">
		<path id="Vector" d="M21.33 31.99L42.66 31.99" stroke="#1A1A1A" stroke-opacity="1.000000" stroke-width="1.500000" stroke-linejoin="round" stroke-linecap="round"/>
		<path id="Vector" d="M21.33 31.99L42.66 31.99" stroke="#000000" stroke-opacity="0.200000" stroke-width="1.500000" stroke-linejoin="round" stroke-linecap="round"/>
		<path id="Vector" d="M27.99 38.66C27.99 38.66 21.33 33.75 21.33 32C21.33 30.24 27.99 25.33 27.99 25.33" stroke="#1A1A1A" stroke-opacity="1.000000" stroke-width="1.500000" stroke-linejoin="round" stroke-linecap="round"/>
		<path id="Vector" d="M27.99 38.66C27.99 38.66 21.33 33.75 21.33 32C21.33 30.24 27.99 25.33 27.99 25.33" stroke="#000000" stroke-opacity="0.200000" stroke-width="1.500000" stroke-linejoin="round" stroke-linecap="round"/>
	</g>
</svg>
