<svg width="80.000000" height="80.000000" viewBox="0 0 80 80" fill="none" xmlns="http://www.w3.org/2000/svg" xmlns:xlink="http://www.w3.org/1999/xlink">
	<desc>
			Created with Pixso.
	</desc>
	<defs>
		<clipPath id="clip243_122">
			<rect id="Frame" width="42.020203" height="42.020203" transform="translate(19.394043 19.394043)" fill="white" fill-opacity="0"/>
		</clipPath>
	</defs>
	<rect id="Rectangle 61" rx="40.000000" width="80.000000" height="80.000000" fill="#FFFFFF" fill-opacity="1.000000"/>
	<rect id="Frame" width="42.020203" height="42.020203" transform="translate(19.394043 19.394043)" fill="#FFFFFF" fill-opacity="0"/>
	<g clip-path="url(#clip243_122)">
		<path id="Vector" d="M34.16 51.67C34.93 50.9 36.17 50.9 38.65 50.9L42.15 50.9C44.63 50.9 45.86 50.9 46.63 51.67C47.4 52.44 47.4 53.68 47.4 56.16L47.4 57.91L33.4 57.91L33.4 56.16C33.4 53.68 33.4 52.44 34.16 51.67Z" stroke="#1A1A1A" stroke-opacity="1.000000" stroke-width="1.500000" stroke-linejoin="round"/>
		<path id="Vector" d="M34.16 51.67C34.93 50.9 36.17 50.9 38.65 50.9L42.15 50.9C44.63 50.9 45.86 50.9 46.63 51.67C47.4 52.44 47.4 53.68 47.4 56.16L47.4 57.91L33.4 57.91L33.4 56.16C33.4 53.68 33.4 52.44 34.16 51.67Z" stroke="#000000" stroke-opacity="0.200000" stroke-width="1.500000" stroke-linejoin="round"/>
		<path id="Vector" d="M40.4 42.15L40.4 50.9" stroke="#1A1A1A" stroke-opacity="1.000000" stroke-width="1.500000" stroke-linejoin="round" stroke-linecap="round"/>
		<path id="Vector" d="M40.4 42.15L40.4 50.9" stroke="#000000" stroke-opacity="0.200000" stroke-width="1.500000" stroke-linejoin="round" stroke-linecap="round"/>
		<path id="Vector" d="M29.89 57.91L50.9 57.91" stroke="#1A1A1A" stroke-opacity="1.000000" stroke-width="1.500000" stroke-linejoin="round" stroke-linecap="round"/>
		<path id="Vector" d="M29.89 57.91L50.9 57.91" stroke="#000000" stroke-opacity="0.200000" stroke-width="1.500000" stroke-linejoin="round" stroke-linecap="round"/>
		<path id="Vector" d="M44.06 28.14C44.31 28.65 44.99 29.15 45.55 29.25L48.91 29.81C51.05 30.17 51.55 31.74 50.01 33.28L47.4 35.91C46.96 36.35 46.72 37.21 46.86 37.83L47.6 41.08C48.19 43.65 46.84 44.65 44.58 43.3L41.44 41.43C40.87 41.09 39.93 41.09 39.36 41.43L36.22 43.3C33.97 44.65 32.6 43.64 33.19 41.08L33.94 37.83C34.07 37.21 33.83 36.35 33.39 35.91L30.79 33.28C29.25 31.74 29.75 30.17 31.89 29.81L35.24 29.25C35.8 29.15 36.47 28.65 36.72 28.14L38.57 24.41C39.58 22.38 41.22 22.38 42.21 24.41L44.06 28.14Z" stroke="#1A1A1A" stroke-opacity="1.000000" stroke-width="1.500000" stroke-linejoin="round"/>
		<path id="Vector" d="M44.06 28.14C44.31 28.65 44.99 29.15 45.55 29.25L48.91 29.81C51.05 30.17 51.55 31.74 50.01 33.28L47.4 35.91C46.96 36.35 46.72 37.21 46.86 37.83L47.6 41.08C48.19 43.65 46.84 44.65 44.58 43.3L41.44 41.43C40.87 41.09 39.93 41.09 39.36 41.43L36.22 43.3C33.97 44.65 32.6 43.64 33.19 41.08L33.94 37.83C34.07 37.21 33.83 36.35 33.39 35.91L30.79 33.28C29.25 31.74 29.75 30.17 31.89 29.81L35.24 29.25C35.8 29.15 36.47 28.65 36.72 28.14L38.57 24.41C39.58 22.38 41.22 22.38 42.21 24.41L44.06 28.14Z" stroke="#000000" stroke-opacity="0.200000" stroke-width="1.500000" stroke-linejoin="round"/>
	</g>
</svg>
