<svg width="80.000000" height="80.000000" viewBox="0 0 80 80" fill="none" xmlns="http://www.w3.org/2000/svg" xmlns:xlink="http://www.w3.org/1999/xlink">
	<desc>
			Created with Pixso.
	</desc>
	<defs>
		<clipPath id="clip243_136">
			<rect id="Frame" width="42.020203" height="42.020203" transform="translate(19.394043 19.394043)" fill="white" fill-opacity="0"/>
		</clipPath>
	</defs>
	<rect id="Rectangle 61" rx="40.000000" width="80.000000" height="80.000000" fill="#FFFFFF" fill-opacity="1.000000"/>
	<rect id="Frame" width="42.020203" height="42.020203" transform="translate(19.394043 19.394043)" fill="#FFFFFF" fill-opacity="0"/>
	<g clip-path="url(#clip243_136)">
		<path id="Vector" d="M57.91 40.4C57.91 50.07 50.07 57.91 40.4 57.91C30.73 57.91 22.89 50.07 22.89 40.4M34.27 23.99C36.18 23.28 38.24 22.89 40.4 22.89C42.55 22.89 44.62 23.28 46.53 23.99" stroke="#1A1A1A" stroke-opacity="1.000000" stroke-width="1.500000" stroke-linejoin="round" stroke-linecap="round"/>
		<path id="Vector" d="M57.91 40.4C57.91 50.07 50.07 57.91 40.4 57.91C30.73 57.91 22.89 50.07 22.89 40.4M34.27 23.99C36.18 23.28 38.24 22.89 40.4 22.89C42.55 22.89 44.62 23.28 46.53 23.99" stroke="#000000" stroke-opacity="0.200000" stroke-width="1.500000" stroke-linejoin="round" stroke-linecap="round"/>
		<path id="Vector" d="M33.48 30.77C33.6 31.03 33.94 31.27 34.22 31.32L35.9 31.6C36.97 31.78 37.22 32.57 36.45 33.34L35.15 34.65C34.93 34.87 34.81 35.3 34.87 35.61L35.25 37.24C35.54 38.52 34.86 39.02 33.73 38.35L32.16 37.41C31.88 37.24 31.41 37.24 31.12 37.41L29.55 38.35C28.43 39.02 27.75 38.52 28.04 37.24L28.41 35.61C28.48 35.3 28.36 34.87 28.14 34.65L26.84 33.34C26.07 32.57 26.32 31.78 27.39 31.6L29.07 31.32C29.34 31.27 29.68 31.03 29.81 30.77L30.73 28.9C31.23 27.89 32.05 27.89 32.55 28.9L33.48 30.77Z" stroke="#1A1A1A" stroke-opacity="1.000000" stroke-width="1.500000" stroke-linejoin="round"/>
		<path id="Vector" d="M33.48 30.77C33.6 31.03 33.94 31.27 34.22 31.32L35.9 31.6C36.97 31.78 37.22 32.57 36.45 33.34L35.15 34.65C34.93 34.87 34.81 35.3 34.87 35.61L35.25 37.24C35.54 38.52 34.86 39.02 33.73 38.35L32.16 37.41C31.88 37.24 31.41 37.24 31.12 37.41L29.55 38.35C28.43 39.02 27.75 38.52 28.04 37.24L28.41 35.61C28.48 35.3 28.36 34.87 28.14 34.65L26.84 33.34C26.07 32.57 26.32 31.78 27.39 31.6L29.07 31.32C29.34 31.27 29.68 31.03 29.81 30.77L30.73 28.9C31.23 27.89 32.05 27.89 32.55 28.9L33.48 30.77Z" stroke="#000000" stroke-opacity="0.200000" stroke-width="1.500000" stroke-linejoin="round"/>
		<path id="Vector" d="M50.99 30.77C51.11 31.03 51.45 31.27 51.73 31.32L53.41 31.6C54.48 31.78 54.73 32.57 53.96 33.34L52.66 34.65C52.43 34.87 52.31 35.3 52.38 35.61L52.75 37.24C53.05 38.52 52.37 39.02 51.24 38.35L49.67 37.41C49.39 37.24 48.92 37.24 48.63 37.41L47.06 38.35C45.94 39.02 45.26 38.52 45.55 37.24L45.92 35.61C45.99 35.3 45.87 34.87 45.65 34.65L44.35 33.34C43.58 32.57 43.83 31.78 44.9 31.6L46.57 31.32C46.85 31.27 47.19 31.03 47.31 30.77L48.24 28.9C48.74 27.89 49.56 27.89 50.06 28.9L50.99 30.77Z" stroke="#1A1A1A" stroke-opacity="1.000000" stroke-width="1.500000" stroke-linejoin="round"/>
		<path id="Vector" d="M50.99 30.77C51.11 31.03 51.45 31.27 51.73 31.32L53.41 31.6C54.48 31.78 54.73 32.57 53.96 33.34L52.66 34.65C52.43 34.87 52.31 35.3 52.38 35.61L52.75 37.24C53.05 38.52 52.37 39.02 51.24 38.35L49.67 37.41C49.39 37.24 48.92 37.24 48.63 37.41L47.06 38.35C45.94 39.02 45.26 38.52 45.55 37.24L45.92 35.61C45.99 35.3 45.87 34.87 45.65 34.65L44.35 33.34C43.58 32.57 43.83 31.78 44.9 31.6L46.57 31.32C46.85 31.27 47.19 31.03 47.31 30.77L48.24 28.9C48.74 27.89 49.56 27.89 50.06 28.9L50.99 30.77Z" stroke="#000000" stroke-opacity="0.200000" stroke-width="1.500000" stroke-linejoin="round"/>
		<path id="Vector" d="M33.4 45.65C34.99 47.78 37.54 49.15 40.4 49.15C43.26 49.15 45.81 47.78 47.4 45.65" stroke="#1A1A1A" stroke-opacity="1.000000" stroke-width="1.500000" stroke-linejoin="round" stroke-linecap="round"/>
		<path id="Vector" d="M33.4 45.65C34.99 47.78 37.54 49.15 40.4 49.15C43.26 49.15 45.81 47.78 47.4 45.65" stroke="#000000" stroke-opacity="0.200000" stroke-width="1.500000" stroke-linejoin="round" stroke-linecap="round"/>
	</g>
</svg>
