<svg width="111.621582" height="127.814713" viewBox="0 0 111.622 127.815" fill="none" xmlns="http://www.w3.org/2000/svg" xmlns:xlink="http://www.w3.org/1999/xlink">
	<desc>
			Created with Pixso.
	</desc>
	<defs/>
	<path id="Vector" d="M12.05 107.45C8.23 102.76 5.17 97.44 3.11 91.64C1.09 86.03 0 80.03 0 73.8L0 53.72C0 47.93 0.78 42.53 2.22 37.6C3.73 32.44 6.01 27.8 8.86 23.66L10.69 24.92C7.94 28.88 5.8 33.3 4.36 38.23C2.98 42.95 2.22 48.11 2.22 53.72L2.22 73.8C2.22 79.8 3.26 85.54 5.17 90.88C7.16 96.44 10.09 101.55 13.75 106.03L12.05 107.45ZM102.28 23.66C105.29 28.01 107.64 32.86 109.24 38C110.78 42.98 111.62 48.27 111.62 53.72L111.62 73.8C111.62 80.03 110.52 86.03 108.53 91.64C106.47 97.44 103.41 102.78 99.59 107.45L97.89 106.03C101.55 101.55 104.48 96.44 106.47 90.88C108.37 85.54 109.42 79.8 109.42 73.8L109.42 53.72C109.42 48.48 108.61 43.42 107.15 38.65C105.6 33.72 103.35 29.09 100.48 24.92L102.28 23.66Z" fill="#002B55" fill-opacity="1.000000" fill-rule="nonzero"/>
	<path id="Vector" d="M24.21 50.92L87.43 50.92L87.43 52.86L24.21 52.86L24.21 50.92Z" fill="#002B55" fill-opacity="1.000000" fill-rule="evenodd"/>
	<path id="Vector" d="M27.82 37.13L31.03 34.54L34.25 37.13L34.25 57.68L27.82 57.68L27.82 37.13ZM36.08 32.36L39.29 29.77L42.51 32.36L42.51 57.68L36.08 57.68L36.08 32.36ZM44.34 27.51L47.56 24.92L50.77 27.51L50.77 57.7L44.34 57.7L44.34 27.51ZM52.6 22.69L55.82 20.1L59.04 22.69L59.04 57.68L52.6 57.68L52.6 22.69ZM60.87 27.51L64.08 24.92L67.3 27.51L67.3 57.7L60.87 57.7L60.87 27.51ZM69.15 32.36L72.37 29.77L75.59 32.36L75.59 57.68L69.15 57.68L69.15 32.36ZM77.42 37.13L80.63 34.54L83.85 37.13L83.85 57.68L77.42 57.68L77.42 37.13ZM85.68 41.9L88.89 39.31L92.11 41.9L92.11 57.68L85.68 57.68L85.68 41.9ZM19.55 41.9L22.77 39.31L25.99 41.9L25.99 57.68L19.55 57.68L19.55 41.9Z" fill="#002B55" fill-opacity="1.000000" fill-rule="evenodd"/>
	<path id="Vector" d="M19.53 55.95L92.08 55.95L92.08 58.04L19.53 58.04L19.53 55.95Z" fill="#B0DD1D" fill-opacity="1.000000" fill-rule="evenodd"/>
	<path id="Vector" d="M24.21 45.44L87.43 45.44L87.43 47.38L24.21 47.38L24.21 45.44Z" fill="#002B55" fill-opacity="1.000000" fill-rule="evenodd"/>
	<path id="Vector" d="M32.76 39.96L78.88 39.96L78.88 41.9L32.76 41.9L32.76 39.96Z" fill="#002B55" fill-opacity="1.000000" fill-rule="evenodd"/>
	<path id="Vector" d="M39.95 34.48L71.69 34.48L71.69 36.42L39.95 36.42L39.95 34.48Z" fill="#002B55" fill-opacity="1.000000" fill-rule="evenodd"/>
	<path id="Vector" d="M46.93 29.01L64.71 29.01L64.71 30.95L46.93 30.95L46.93 29.01Z" fill="#002B55" fill-opacity="1.000000" fill-rule="evenodd"/>
	<path id="Vector" d="M24.97 89.97L18.4 98.35L30.56 98.35C44.08 98.35 50.88 93.43 50.88 83.55L50.88 65.75L40.78 65.75L40.78 83.55C40.78 88.21 38.25 89.97 30.59 89.97L24.97 89.97Z" fill="#B0DD1D" fill-opacity="1.000000" fill-rule="nonzero"/>
	<path id="Vector" d="M56.52 65.75L56.52 98.35L66.64 98.35L66.64 86.4L85 86.4L91.14 78.46L66.64 78.46L66.64 74.22L86.46 74.22L92.97 65.75L56.52 65.75Z" fill="#002B55" fill-opacity="1.000000" fill-rule="nonzero"/>
	<path id="Vector" d="M99.28 20.59C99.46 20.44 99.59 20.23 99.64 20.04C99.69 19.83 99.62 19.6 99.38 19.36L98.91 18.81L95.46 21.8L96.01 22.43C96.11 22.56 96.22 22.64 96.32 22.66C96.43 22.69 96.53 22.72 96.63 22.69C96.74 22.66 96.84 22.64 96.95 22.56C97.05 22.51 97.16 22.43 97.24 22.32L99.28 20.59ZM100.06 18.97C100.19 19.13 100.3 19.28 100.35 19.47C100.43 19.65 100.45 19.83 100.45 20.02C100.45 20.2 100.43 20.38 100.35 20.57C100.27 20.75 100.16 20.91 100.01 21.04L97.65 23.08C97.29 23.4 96.95 23.56 96.58 23.56C96.22 23.56 95.9 23.4 95.64 23.11L94.39 21.67L98.94 17.71L100.06 18.97ZM94.49 14.38L93.13 15.82L94.15 16.79L93.63 17.34L92.61 16.37L91.35 17.71L92.61 18.89L92.11 19.41L90.28 17.69L94.41 13.28L96.24 15.01L95.72 15.56L94.49 14.38ZM90.59 10.4L91.25 10.9L87.59 15.72L86.93 15.22L90.59 10.4ZM82.12 12.23L85.29 7.07L87.43 8.41L87.04 9.04L85.57 8.15L84.53 9.85L85.73 10.58L85.34 11.21L84.14 10.48L82.8 12.65L82.12 12.23ZM80.53 4.92L81.29 5.21L79.09 10.85L78.33 10.56L80.53 4.92ZM73.7 8.8L75.19 3.72L74.23 3.43L74.44 2.72L77.16 3.51L76.95 4.21L75.98 3.93L74.49 9.01L73.7 8.8ZM70.75 2.46C70.72 2.46 70.67 2.43 70.64 2.43C70.62 2.43 70.57 2.41 70.54 2.41C70.49 2.38 70.44 2.38 70.36 2.35C70.3 2.33 70.23 2.33 70.17 2.3L69.86 2.25C69.76 2.22 69.62 2.22 69.49 2.2C69.36 2.2 69.23 2.2 69.13 2.25C69 2.28 68.89 2.35 68.81 2.43C68.71 2.54 68.66 2.67 68.63 2.85C68.6 2.96 68.63 3.06 68.74 3.22C68.81 3.38 68.92 3.53 69.05 3.74C69.18 3.93 69.31 4.14 69.47 4.35C69.62 4.56 69.76 4.79 69.89 5C70.02 5.24 70.1 5.45 70.17 5.66C70.25 5.87 70.25 6.08 70.23 6.26C70.17 6.52 70.1 6.73 69.96 6.91C69.83 7.07 69.7 7.2 69.52 7.31C69.34 7.39 69.15 7.44 68.92 7.46C68.71 7.49 68.47 7.46 68.24 7.41C68.11 7.39 67.98 7.36 67.85 7.31C67.74 7.28 67.61 7.23 67.48 7.15C67.35 7.1 67.22 7.02 67.09 6.91L67.19 6.23C67.32 6.31 67.45 6.39 67.59 6.44C67.69 6.49 67.79 6.55 67.9 6.6C68 6.65 68.11 6.68 68.16 6.68C68.32 6.7 68.45 6.73 68.6 6.73C68.74 6.73 68.87 6.73 68.97 6.68C69.08 6.65 69.18 6.57 69.26 6.47C69.34 6.36 69.39 6.23 69.42 6.08C69.44 5.94 69.42 5.81 69.34 5.63C69.26 5.47 69.15 5.29 69.02 5.11C68.89 4.92 68.74 4.74 68.58 4.53C68.42 4.32 68.29 4.11 68.16 3.9C68.03 3.69 67.93 3.48 67.87 3.27C67.79 3.06 67.79 2.83 67.85 2.62C67.87 2.46 67.95 2.3 68.03 2.12C68.11 1.96 68.24 1.8 68.4 1.67C68.55 1.54 68.74 1.44 68.94 1.38C69.15 1.33 69.39 1.31 69.68 1.38C69.76 1.38 69.83 1.41 69.94 1.44C70.04 1.46 70.15 1.49 70.28 1.52C70.41 1.54 70.51 1.57 70.62 1.62C70.72 1.65 70.85 1.67 70.93 1.72L70.75 2.46ZM62.07 6.44C61.86 6.42 61.65 6.36 61.47 6.28C61.28 6.21 61.1 6.1 60.97 5.94C60.84 5.81 60.71 5.63 60.66 5.42C60.58 5.21 60.55 4.97 60.6 4.69L61.15 0.2L61.96 0.31L61.41 4.79C61.39 5.03 61.41 5.24 61.52 5.39C61.62 5.55 61.83 5.66 62.15 5.71C62.49 5.73 62.7 5.68 62.85 5.55C62.98 5.42 63.06 5.24 63.11 5L63.66 0.52L64.47 0.62L63.92 5.16C63.9 5.42 63.82 5.66 63.69 5.84C63.56 6.02 63.43 6.15 63.25 6.26C63.06 6.36 62.88 6.42 62.67 6.47C62.49 6.47 62.28 6.47 62.07 6.44ZM53.73 4.74L54.54 4.71C54.54 4.87 54.56 5 54.59 5.11C54.62 5.18 54.67 5.26 54.75 5.32C54.8 5.37 54.9 5.37 55.01 5.39C55.11 5.39 55.24 5.39 55.4 5.42C55.74 5.39 55.95 5.34 56.08 5.24C56.18 5.13 56.26 4.95 56.24 4.69L56.05 0.02L56.89 0L57.07 4.84C57.07 5.05 57.05 5.26 56.97 5.42C56.89 5.58 56.79 5.71 56.66 5.81C56.53 5.92 56.34 6 56.16 6.05C55.98 6.1 55.77 6.13 55.53 6.15C55.01 6.18 54.56 6.1 54.25 5.92C53.94 5.76 53.75 5.45 53.75 5L53.73 4.74ZM46.17 1.41C45.96 1.44 45.8 1.46 45.67 1.52C45.54 1.57 45.46 1.62 45.39 1.7C45.33 1.78 45.28 1.88 45.28 1.99C45.26 2.12 45.28 2.25 45.28 2.43L45.62 5.39C45.65 5.66 45.73 5.84 45.88 5.94C46.04 6.08 46.3 6.1 46.67 6.08C46.85 6.05 47.01 6.02 47.14 5.94C47.27 5.89 47.35 5.81 47.4 5.73C47.45 5.66 47.5 5.55 47.53 5.45C47.56 5.34 47.56 5.21 47.53 5.11L47.4 4.03L46.88 4.08L46.8 3.43L48.13 3.27L48.52 6.52L48.21 6.55L48 6.18C47.92 6.31 47.82 6.39 47.74 6.47C47.64 6.55 47.53 6.6 47.43 6.63C47.32 6.68 47.22 6.7 47.11 6.7C47.01 6.73 46.88 6.73 46.77 6.76C46.56 6.78 46.35 6.78 46.12 6.78C45.91 6.76 45.7 6.73 45.52 6.65C45.33 6.57 45.18 6.44 45.05 6.28C44.92 6.13 44.84 5.92 44.81 5.63L44.45 2.46C44.39 2.12 44.42 1.83 44.5 1.59C44.58 1.38 44.68 1.2 44.84 1.07C44.99 0.94 45.18 0.83 45.39 0.78C45.6 0.73 45.83 0.68 46.07 0.65C46.3 0.62 46.54 0.62 46.75 0.62C46.96 0.65 47.16 0.7 47.35 0.78C47.53 0.89 47.66 1.02 47.79 1.2C47.92 1.38 47.98 1.62 48.03 1.93L47.24 2.04C47.22 1.88 47.19 1.75 47.14 1.67C47.09 1.57 47.03 1.52 46.93 1.46C46.85 1.41 46.75 1.38 46.62 1.38C46.51 1.38 46.35 1.38 46.17 1.41ZM39.42 2.09L40.21 1.86L41.88 7.67L41.02 7.94L38.14 4.5L39.29 8.46L38.51 8.7L36.81 2.83L37.67 2.56L40.63 6.28L39.42 2.09ZM32.42 4.37L33.18 4.08L35.35 9.72L34.59 10.01L32.42 4.37ZM27.76 9.9C27.5 9.35 27.35 8.85 27.29 8.43C27.24 8.01 27.27 7.65 27.35 7.33C27.42 7.02 27.58 6.76 27.74 6.57C27.92 6.36 28.1 6.23 28.26 6.15C28.36 6.1 28.47 6.05 28.57 6C28.68 5.94 28.78 5.92 28.89 5.87L29.2 6.49C29.15 6.52 29.1 6.55 29.02 6.57C28.94 6.6 28.89 6.65 28.84 6.68C28.57 6.81 28.36 6.97 28.23 7.18C28.1 7.39 28.02 7.6 28 7.83C27.97 8.07 28 8.33 28.08 8.62C28.16 8.91 28.26 9.19 28.42 9.48C28.57 9.77 28.73 10.03 28.91 10.27C29.1 10.48 29.31 10.66 29.52 10.79C29.72 10.92 29.96 11 30.22 11C30.46 11.03 30.72 10.95 30.98 10.85C31.03 10.82 31.08 10.79 31.14 10.77C31.19 10.74 31.24 10.71 31.27 10.69L31.58 11.32C31.55 11.34 31.55 11.34 31.53 11.34C31.5 11.34 31.48 11.37 31.48 11.4C31.45 11.42 31.4 11.45 31.32 11.47C31.27 11.5 31.19 11.53 31.11 11.58C30.87 11.71 30.59 11.76 30.3 11.79C30.01 11.79 29.7 11.74 29.38 11.61C29.07 11.47 28.78 11.29 28.5 11C28.26 10.74 28 10.37 27.76 9.9ZM22.53 9.43L23.21 9.01L26.38 14.17L25.62 14.62L21.93 12.08L24.08 15.59L23.4 16.01L20.23 10.85L20.99 10.37L24.83 13.18L22.53 9.43ZM16.1 15.38L17.46 16.82L18.48 15.85L19 16.4L17.98 17.37L19.24 18.71L20.49 17.53L20.99 18.05L19.13 19.78L14.98 15.38L16.81 13.65L17.33 14.2L16.1 15.38ZM15.27 23.95L10.69 19.99L12.34 18.08L12.91 18.58L11.79 19.89L13.28 21.17L14.19 20.1L14.77 20.59L13.85 21.64L15.79 23.32L15.27 23.95Z" fill="#002B55" fill-opacity="1.000000" fill-rule="nonzero"/>
	<path id="Vector" d="M94.05 108.5C93.86 108.31 93.68 108.18 93.47 108.15C93.26 108.1 93.03 108.21 92.79 108.42L92.24 108.89L95.27 112.3L95.9 111.74C96.03 111.64 96.11 111.54 96.14 111.43C96.16 111.33 96.19 111.22 96.16 111.12C96.14 111.01 96.09 110.91 96.03 110.8C95.95 110.7 95.9 110.59 95.8 110.51L94.05 108.5ZM92.42 107.76C92.58 107.63 92.74 107.53 92.92 107.45C93.1 107.37 93.29 107.34 93.47 107.34C93.65 107.34 93.84 107.37 94.02 107.45C94.2 107.53 94.36 107.63 94.49 107.79L96.58 110.12C96.9 110.46 97.05 110.83 97.05 111.19C97.05 111.56 96.92 111.88 96.61 112.14L95.2 113.42L91.17 108.91L92.42 107.76ZM88.27 112.11L89.42 113.71L90.54 112.9L90.99 113.5L89.86 114.31L90.93 115.81L92.32 114.81L92.74 115.39L90.7 116.86L87.17 111.95L89.21 110.49L89.65 111.09L88.27 112.11ZM84.14 113.89L84.84 113.47L87.87 118.69L87.17 119.11L84.14 113.89ZM82.15 121.73L79.61 116.25L81.91 115.18L82.23 115.86L80.68 116.59L81.52 118.4L82.8 117.83L83.12 118.51L81.84 119.08L82.91 121.42L82.15 121.73ZM76.06 117.75L76.81 117.43L79.09 123.04L78.33 123.35L76.06 117.75ZM73.65 124.93L72.08 119.87L71.14 120.16L70.93 119.45L73.62 118.61L73.83 119.32L72.87 119.61L74.44 124.67L73.65 124.93ZM68.5 120.76C68.47 120.76 68.42 120.79 68.4 120.79C68.37 120.79 68.32 120.79 68.29 120.79C68.24 120.79 68.16 120.81 68.11 120.81C68.06 120.81 67.98 120.84 67.92 120.84L67.61 120.92C67.51 120.94 67.38 120.97 67.25 121.02C67.11 121.07 67.01 121.13 66.91 121.21C66.8 121.28 66.75 121.39 66.7 121.52C66.64 121.65 66.64 121.78 66.7 121.97C66.72 122.07 66.8 122.18 66.93 122.28C67.06 122.39 67.22 122.49 67.43 122.62C67.64 122.75 67.85 122.88 68.06 123.01C68.29 123.15 68.5 123.3 68.71 123.46C68.92 123.62 69.1 123.77 69.23 123.96C69.39 124.14 69.47 124.3 69.52 124.51C69.57 124.77 69.57 125.01 69.55 125.22C69.49 125.43 69.42 125.58 69.28 125.74C69.15 125.9 69 126.03 68.81 126.13C68.63 126.24 68.4 126.32 68.16 126.37C68.03 126.39 67.9 126.42 67.77 126.42C67.66 126.42 67.51 126.45 67.38 126.42C67.22 126.42 67.09 126.39 66.93 126.37L66.77 125.69C66.93 125.71 67.06 125.71 67.19 125.71C67.3 125.71 67.43 125.71 67.53 125.71C67.64 125.71 67.74 125.71 67.82 125.69C67.98 125.66 68.11 125.61 68.24 125.56C68.37 125.5 68.47 125.45 68.55 125.37C68.63 125.29 68.71 125.19 68.74 125.08C68.76 124.95 68.76 124.82 68.74 124.67C68.71 124.53 68.63 124.4 68.5 124.3C68.37 124.19 68.19 124.06 68 123.96C67.79 123.85 67.61 123.72 67.38 123.62C67.17 123.49 66.93 123.35 66.75 123.22C66.54 123.09 66.38 122.94 66.23 122.75C66.07 122.59 65.99 122.39 65.94 122.18C65.91 122.02 65.89 121.83 65.91 121.65C65.91 121.47 65.96 121.28 66.07 121.1C66.15 120.92 66.28 120.76 66.43 120.63C66.59 120.5 66.83 120.39 67.09 120.31C67.14 120.29 67.25 120.29 67.35 120.26C67.45 120.24 67.56 120.21 67.69 120.21C67.82 120.18 67.92 120.18 68.06 120.16C68.19 120.13 68.29 120.13 68.4 120.13L68.5 120.76ZM62.02 127.31C61.81 127.34 61.6 127.34 61.39 127.31C61.18 127.29 61 127.21 60.81 127.13C60.63 127.02 60.5 126.89 60.37 126.71C60.24 126.53 60.16 126.29 60.13 126.03L59.53 121.52L60.34 121.42L60.94 125.9C60.97 126.13 61.07 126.34 61.21 126.45C61.34 126.58 61.57 126.63 61.91 126.58C62.23 126.53 62.43 126.42 62.54 126.26C62.64 126.11 62.67 125.9 62.64 125.66L62.04 121.21L62.85 121.1L63.45 125.61C63.48 125.87 63.48 126.13 63.4 126.34C63.32 126.55 63.22 126.74 63.09 126.87C62.96 127 62.77 127.13 62.59 127.21C62.41 127.23 62.23 127.29 62.02 127.31ZM53.67 126.39L54.49 126.37C54.49 126.53 54.51 126.66 54.54 126.76C54.56 126.84 54.62 126.92 54.67 126.97C54.72 127.02 54.83 127.05 54.93 127.05C55.03 127.05 55.16 127.08 55.32 127.08C55.66 127.05 55.87 127 56 126.89C56.13 126.79 56.18 126.6 56.18 126.34L56.08 121.68L56.92 121.65L57 126.53C57 126.74 56.97 126.92 56.89 127.1C56.81 127.26 56.71 127.39 56.55 127.5C56.42 127.6 56.24 127.68 56.05 127.73C55.87 127.78 55.66 127.81 55.43 127.81C54.9 127.81 54.46 127.73 54.15 127.57C53.83 127.39 53.67 127.1 53.65 126.66L53.67 126.39ZM47.4 122.07C47.19 122.04 47.03 122.04 46.9 122.04C46.77 122.04 46.67 122.1 46.59 122.15C46.51 122.2 46.46 122.31 46.41 122.41C46.35 122.52 46.33 122.67 46.3 122.83L45.94 125.79C45.91 126.05 45.94 126.24 46.07 126.39C46.17 126.55 46.43 126.66 46.8 126.71C46.98 126.74 47.14 126.74 47.27 126.71C47.4 126.68 47.5 126.63 47.58 126.58C47.66 126.5 47.71 126.42 47.77 126.32C47.82 126.21 47.84 126.11 47.84 125.98L47.97 124.9L47.45 124.82L47.53 124.17L48.86 124.32L48.45 127.57L48.13 127.52L48 127.13C47.9 127.23 47.79 127.29 47.66 127.34C47.56 127.39 47.45 127.42 47.32 127.42C47.22 127.44 47.09 127.44 46.98 127.42C46.88 127.42 46.75 127.39 46.64 127.39C46.43 127.36 46.22 127.31 46.01 127.26C45.8 127.18 45.62 127.1 45.46 126.97C45.31 126.84 45.18 126.68 45.1 126.5C45.02 126.32 44.99 126.08 45.02 125.82L45.41 122.65C45.46 122.31 45.54 122.02 45.65 121.83C45.78 121.65 45.91 121.49 46.09 121.42C46.28 121.34 46.46 121.28 46.69 121.26C46.9 121.26 47.14 121.26 47.37 121.28C47.61 121.31 47.84 121.36 48.05 121.44C48.26 121.52 48.45 121.63 48.58 121.73C48.73 121.86 48.84 122.02 48.92 122.23C48.99 122.44 48.99 122.67 48.97 122.99L48.16 122.88C48.18 122.73 48.18 122.59 48.16 122.49C48.13 122.39 48.08 122.31 48.03 122.23C47.95 122.15 47.87 122.12 47.74 122.07C47.71 122.12 47.56 122.1 47.4 122.07ZM42.35 120.47L43.14 120.66L41.78 126.55L40.91 126.34L40.08 121.91L39.14 125.92L38.35 125.74L39.71 119.84L40.58 120.05L41.33 124.74L42.35 120.47ZM36.37 118.69L37.15 118.95L35.22 124.69L34.43 124.43L36.37 118.69ZM30.06 119.29C30.33 118.74 30.59 118.3 30.9 118.01C31.19 117.69 31.5 117.48 31.79 117.35C32.08 117.22 32.37 117.17 32.63 117.17C32.89 117.17 33.12 117.22 33.31 117.3C33.41 117.35 33.52 117.41 33.62 117.46C33.72 117.51 33.83 117.56 33.91 117.64L33.62 118.3C33.57 118.27 33.52 118.24 33.44 118.19C33.36 118.17 33.28 118.11 33.25 118.11C32.99 117.98 32.73 117.93 32.5 117.96C32.26 117.98 32.05 118.06 31.84 118.19C31.63 118.32 31.45 118.51 31.29 118.74C31.14 118.98 30.98 119.24 30.82 119.55C30.69 119.84 30.59 120.16 30.53 120.45C30.48 120.73 30.48 121 30.51 121.26C30.56 121.52 30.64 121.73 30.77 121.94C30.9 122.15 31.11 122.31 31.37 122.41C31.42 122.44 31.48 122.46 31.53 122.46C31.58 122.49 31.63 122.49 31.68 122.52L31.4 123.15C31.37 123.15 31.35 123.15 31.35 123.12C31.32 123.12 31.29 123.09 31.27 123.09C31.21 123.09 31.16 123.07 31.11 123.04C31.06 123.01 30.98 122.99 30.9 122.94C30.67 122.83 30.43 122.65 30.25 122.44C30.04 122.2 29.91 121.94 29.8 121.63C29.7 121.31 29.67 120.94 29.7 120.55C29.75 120.18 29.85 119.76 30.06 119.29ZM28.68 114.94L29.36 115.39L26.12 120.47L25.36 120L26.04 115.55L23.81 119L23.14 118.56L26.38 113.47L27.14 113.95L26.3 118.64L28.68 114.94ZM22.48 111.48L21.25 113.06L22.35 113.92L21.88 114.5L20.78 113.63L19.63 115.07L20.96 116.15L20.52 116.7L18.53 115.13L22.27 110.38L24.26 111.95L23.79 112.53L22.48 111.48ZM14.43 111.3L18.59 106.92L20.42 108.68L19.89 109.23L18.66 108.05L17.3 109.49L18.32 110.46L17.8 111.01L16.78 110.04L15 111.9L14.43 111.3Z" fill="#002B55" fill-opacity="1.000000" fill-rule="nonzero"/>
</svg>
